<?xml version="1.0" encoding="UTF-8" standalone="no"?>
<!-- Created with Inkscape (http://www.inkscape.org/) -->

<svg
	 xmlns:dc="http://purl.org/dc/elements/1.1/"
	 xmlns:cc="http://creativecommons.org/ns#"
	 xmlns:rdf="http://www.w3.org/1999/02/22-rdf-syntax-ns#"
	 xmlns:svg="http://www.w3.org/2000/svg"
	 xmlns="http://www.w3.org/2000/svg"
	 xmlns:sodipodi="http://sodipodi.sourceforge.net/DTD/sodipodi-0.dtd"
	 xmlns:inkscape="http://www.inkscape.org/namespaces/inkscape"
	 width="210mm"
	 height="297mm"
	 id="svg2"
	 version="1.1"
	 inkscape:version="0.91 r13725"
	 sodipodi:docname="Gültigkeit-Original-A4.svg">
	<defs
		 id="defs4" />
	<sodipodi:namedview
		 id="base"
		 pagecolor="#ffffff"
		 bordercolor="#666666"
		 borderopacity="1.0"
		 inkscape:pageopacity="0.0"
		 inkscape:pageshadow="2"
		 inkscape:zoom="0.73548822"
		 inkscape:cx="372.04724"
		 inkscape:cy="526.1811"
		 inkscape:document-units="px"
		 inkscape:current-layer="layer5"
		 showgrid="false"
		 inkscape:window-width="1920"
		 inkscape:window-height="1000"
		 inkscape:window-x="0"
		 inkscape:window-y="27"
		 inkscape:window-maximized="1"
		 fit-margin-top="0"
		 fit-margin-left="0"
		 fit-margin-right="0"
		 fit-margin-bottom="0"
		 units="mm" />
	<metadata
		 id="metadata7">
		<rdf:RDF>
			<cc:Work
				 rdf:about="">
				<dc:format>image/svg+xml</dc:format>
				<dc:type
					 rdf:resource="http://purl.org/dc/dcmitype/StillImage" />
				<dc:title></dc:title>
			</cc:Work>
		</rdf:RDF>
	</metadata>
	<g
		 inkscape:groupmode="layer"
		 id="layer5"
		 inkscape:label="Schiridaten"
		 transform="translate(-388.69733,878.18578)"
		 style="display:inline">
		<g
			 id="g3381"
			 transform="translate(44.868156,-958.54697)">
			<text
				 sodipodi:linespacing="125%"
				 id="text3811"
				 y="139.23894"
				 x="397.88144"
				 style="font-style:normal;font-variant:normal;font-weight:bold;font-stretch:normal;font-size:13px;line-height:125%;font-family:'Droid Sans';-inkscape-font-specification:'Droid Sans Bold';text-align:start;letter-spacing:0px;word-spacing:0px;writing-mode:lr-tb;text-anchor:start;fill:#000000;fill-opacity:1;stroke:none"
				 xml:space="preserve"><tspan
					 y="139.23894"
					 x="397.88144"
					 id="tspan3813"
					 sodipodi:role="line">31.12.2015</tspan></text>
			<rect
				 y="120.74271"
				 x="388.75983"
				 height="53.371216"
				 width="180.05351"
				 id="rect3809"
				 style="display:inline;fill:none;stroke:#000000;stroke-width:0.09999999;stroke-miterlimit:4;stroke-dasharray:0.4, 0.20000001, 0.1, 0.20000001;stroke-dashoffset:0;stroke-opacity:1" />
			<g
				 transform="matrix(0.55260122,0,0,0.55260122,302.95174,73.72381)"
				 id="g4277"
				 style="display:inline">
				<g
					 id="g4268">
					<path
						 inkscape:connector-curvature="0"
						 id="rect2984"
						 d="m 343.25951,106.29335 0,42 24.1125,0 c -0.51719,0 -0.98002,-0.0789 -1.40625,-0.225 -0.42624,-0.14609 -0.79251,-0.38906 -1.06875,-0.75 -0.27506,-0.36953 -0.45516,-0.87109 -0.5625,-1.48125 -0.0991,-0.61875 -0.0902,-1.37812 0.0375,-2.30625 l 0.95625,-6.95625 -1.18125,0 c -0.56245,0.61532 -1.11381,1.24645 -1.65,1.89375 -0.006,0.0243 -0.0129,0.051 -0.0188,0.075 -0.1753,0.71422 -0.46442,1.31479 -0.88125,1.78125 -3.13332,2.57118 -5.84645,1.60212 -6.6,1.275 -0.61946,-0.26892 -0.89672,-0.22794 -1.89375,-1.40625 l -4.81875,-16.5 2.60625,-0.7875 1.425,4.44375 c 0.0861,0.27024 0.15611,0.57619 0.24375,0.9 0.085,0.31566 0.17175,0.60657 0.24375,0.88125 l 0.24375,0.975 0.13125,-0.0375 c 0.0564,-0.33361 0.13212,-0.65011 0.24375,-0.95625 0.11163,-0.30611 0.26125,-0.60395 0.45,-0.8625 0.19317,-0.26894 0.42996,-0.50525 0.7125,-0.7125 0.28254,-0.20721 0.62574,-0.36431 1.0125,-0.4875 0.60475,-0.19259 1.20423,-0.21895 1.8,-0.075 0.59576,0.14398 1.15724,0.45397 1.70625,0.9375 0.549,0.48356 1.07769,1.14712 1.55625,1.96875 0.48557,0.81942 0.90467,1.79975 1.275,2.9625 0.37553,1.17915 0.61341,2.24876 0.69375,3.20625 0.0109,0.12157 0.0126,0.23846 0.0188,0.35625 0.44806,-0.50727 0.90485,-1.01319 1.36875,-1.5 0.79228,-0.8314 1.60249,-1.62753 2.4375,-2.4 l 0.88125,-1.95 1.35,0 c 11.28732,-9.38062 25.67119,-13.90537 38.34375,-14.5875 5.29528,-0.28503 10.29427,0.10767 14.64375,1.0875 a 0.60006,0.60006 0 1 1 -0.2625,1.1625 c -14.39809,-3.24353 -36.4504,0.29244 -52.1625,13.4625 l -0.2625,1.95 2.8875,0 -0.4125,2.94375 -2.8875,0 -0.95625,6.95625 c -0.0769,0.5586 -0.0213,0.9711 0.16875,1.2375 0.19005,0.26641 0.47534,0.39375 0.84375,0.39375 0.3188,0 0.62353,-0.0453 0.91875,-0.13125 0.30229,-0.0859 0.60345,-0.18984 0.91875,-0.31875 l -0.39375,2.925 c -0.33066,0.18906 -0.73004,0.34844 -1.2,0.46875 -0.46407,0.12891 -0.96866,0.1875 -1.5,0.1875 l 8.75625,0 c -0.51719,0 -0.98002,-0.0789 -1.40625,-0.225 -0.42624,-0.14609 -0.77376,-0.38906 -1.05,-0.75 -0.27506,-0.36953 -0.47391,-0.87109 -0.58125,-1.48125 -0.0991,-0.61875 -0.0902,-1.37812 0.0375,-2.30625 l 0.95625,-6.95625 -1.5375,0 0.225,-1.66875 1.96875,-1.3125 1.35,-3.0375 2.0625,0 -0.4125,3.075 2.8875,0 -0.4125,2.94375 -2.8875,0 -0.95625,6.95625 c -0.0768,0.5586 -0.0213,0.9711 0.16875,1.2375 0.19005,0.26641 0.47534,0.39375 0.84375,0.39375 0.3188,0 0.62353,-0.0453 0.91875,-0.13125 0.30229,-0.0859 0.6222,-0.18984 0.9375,-0.31875 l -0.4125,2.925 c -0.33066,0.18906 -0.73004,0.34844 -1.2,0.46875 -0.46407,0.12891 -0.96866,0.1875 -1.5,0.1875 l 6.675,0 -1.275,-14.625 3.525,0 0.28125,8.325 c 0.02,0.49739 0.0261,1.01524 0,1.55625 -0.0169,0.53229 -0.0627,1.01618 -0.13125,1.44375 l 0.075,0 c 0.12031,-0.46248 0.27082,-0.94766 0.46875,-1.4625 0.20715,-0.52356 0.42508,-1.04011 0.65625,-1.5375 l 3.80625,-8.325 3.54375,0 -7.48125,14.625 6.24375,0 c -0.32317,0 -0.61284,-0.0536 -0.8625,-0.16875 -0.24967,-0.11517 -0.44807,-0.29466 -0.6,-0.525 -0.15129,-0.23363 -0.25785,-0.52916 -0.3,-0.88125 -0.0388,-0.35538 10e-4,-0.76037 0.0937,-1.2375 0.0938,-0.48371 0.22393,-0.91303 0.39375,-1.275 0.16982,-0.36196 0.35693,-0.65978 0.58125,-0.9 0.22764,-0.2435 0.47594,-0.42199 0.75,-0.54375 0.27675,-0.12175 0.57424,-0.18749 0.88125,-0.1875 0.29892,1e-5 0.55076,0.0569 0.76875,0.16875 0.22131,0.10859 0.3995,0.27362 0.525,0.4875 0.12818,0.21389 0.21549,0.4749 0.24375,0.7875 0.0316,0.30932 0.003,0.6673 -0.075,1.06875 l -0.15,0.73125 -2.75625,0 c -0.0354,0.2106 -0.034,0.39139 -0.0187,0.5625 0.0186,0.16782 0.0653,0.31279 0.13125,0.43125 0.0692,0.11517 0.14805,0.19998 0.2625,0.2625 0.11714,0.0625 0.26697,0.0937 0.43125,0.0937 0.13734,0 0.26937,-0.002 0.39375,-0.0188 0.1277,-0.0197 0.25218,-0.0575 0.375,-0.0937 0.12281,-0.0362 0.23293,-0.0786 0.35625,-0.13125 0.12395,-0.0559 0.26122,-0.11511 0.39375,-0.1875 l -0.225,1.1625 c -0.12112,0.0691 -0.23627,0.13814 -0.35625,0.1875 -0.11666,0.0461 -0.24744,0.0796 -0.375,0.1125 -0.12757,0.0329 -0.26991,0.0618 -0.4125,0.075 -0.14323,0.0165 -0.28304,0.0188 -0.45,0.0188 l 3.01875,0 c -0.10735,0 -0.20716,-0.008 -0.3,-0.0375 -0.0928,-0.0261 -0.17412,-0.0703 -0.24375,-0.13125 -0.0696,-0.0609 -0.12813,-0.1509 -0.16875,-0.24375 -0.0377,-0.0928 -0.0562,-0.18819 -0.0562,-0.31875 0,-0.13637 0.0185,-0.2634 0.0562,-0.35625 0.0406,-0.0958 0.0991,-0.16697 0.16875,-0.225 0.0696,-0.058 0.1509,-0.10514 0.24375,-0.13125 0.0928,-0.0261 0.19265,-0.0375 0.3,-0.0375 0.10155,0 0.1913,0.0114 0.28125,0.0375 0.0928,0.0261 0.17411,0.0732 0.24375,0.13125 0.0696,0.058 0.12813,0.12925 0.16875,0.225 0.0406,0.0928 0.0563,0.21988 0.0563,0.35625 0,0.13056 -0.0156,0.2259 -0.0563,0.31875 -0.0406,0.0928 -0.0991,0.18282 -0.16875,0.24375 -0.0696,0.0609 -0.15091,0.10514 -0.24375,0.13125 -0.0899,0.029 -0.1797,0.0375 -0.28125,0.0375 l 2.0625,0 -0.13125,-5.53125 1.36875,0 -0.1125,3.15 c -0.005,0.18777 -0.0136,0.39576 -0.0375,0.6 -0.0201,0.20095 -0.0564,0.38234 -0.0937,0.54375 l 0.0375,0 c 0.0581,-0.17459 0.1357,-0.36814 0.225,-0.5625 0.0931,-0.19765 0.1796,-0.39348 0.28125,-0.58125 l 1.6875,-3.15 1.35,0 -3.24375,5.53125 2.1,0 c -0.10735,0 -0.22591,-0.008 -0.31875,-0.0375 -0.0928,-0.0261 -0.17412,-0.0703 -0.24375,-0.13125 -0.0696,-0.0609 -0.10938,-0.1509 -0.15,-0.24375 -0.0377,-0.0928 -0.0563,-0.18819 -0.0563,-0.31875 0,-0.13637 0.0185,-0.2634 0.0563,-0.35625 0.0406,-0.0958 0.0804,-0.16697 0.15,-0.225 0.0696,-0.058 0.1509,-0.10514 0.24375,-0.13125 0.0928,-0.0261 0.2114,-0.0375 0.31875,-0.0375 0.10155,0 0.1913,0.0114 0.28125,0.0375 0.0928,0.0261 0.17411,0.0732 0.24375,0.13125 0.0696,0.058 0.12813,0.12925 0.16875,0.225 0.0406,0.0928 0.0562,0.21988 0.0562,0.35625 0,0.13056 -0.0156,0.2259 -0.0562,0.31875 -0.0406,0.0928 -0.0991,0.18282 -0.16875,0.24375 -0.0696,0.0609 -0.15091,0.10514 -0.24375,0.13125 -0.0899,0.029 -0.1797,0.0375 -0.28125,0.0375 l 4.03125,0 0,-12 4.2,0 0,12 4.8,0 0,-12 4.2,0 0,12 4.8,0 0,-12 4.2,0 0,12 4.8,0 0,-12 4.2,0 0,12 4.8,0 0,-12 4.2,0 0,12 4.8,0 0,-12 4.2,0 0,12 9,0 0,-42 -120,0 z m 86.4,11.925 c 2.11343,0 3.825,1.71158 3.825,3.825 0,2.11343 -1.71157,3.84375 -3.825,3.84375 -2.11343,0 -3.825,-1.73032 -3.825,-3.84375 0,-2.11342 1.71157,-3.825 3.825,-3.825 z m -24.6,9.975 49.2,0 0,4.8 -49.2,0 0,-4.8 z m -49.125,2.11875 c -0.15461,0.002 -0.30526,0.0229 -0.46875,0.075 -0.35864,0.11423 -0.64015,0.28881 -0.84375,0.525 -0.19918,0.22579 -0.33554,0.51027 -0.39375,0.8625 -0.0582,0.35226 -0.0408,0.78587 0.0375,1.275 0.0757,0.48096 0.19347,1.03139 0.375,1.65 l 0.13125,0.39375 c 0.21124,0.66328 0.42866,1.24804 0.65625,1.74375 0.23461,0.49349 0.48315,0.89717 0.75,1.2 0.26423,0.29465 0.55197,0.48173 0.8625,0.58125 0.31755,0.0973 0.67027,0.0834 1.05,-0.0375 0.63991,-0.2038 0.99768,-0.70172 1.06875,-1.5 0.0755,-0.80869 -0.0947,-1.89264 -0.525,-3.24375 -0.43031,-1.35109 -0.90878,-2.31233 -1.425,-2.8875 -0.38385,-0.43918 -0.81118,-0.64486 -1.275,-0.6375 z m 37.3125,13.33125 c -0.21814,0 -0.41821,0.0937 -0.6,0.28125 -0.1791,0.18757 -0.31312,0.4798 -0.4125,0.88125 l 1.575,0 c 0.0298,-0.16782 0.0424,-0.32725 0.0375,-0.46875 -0.005,-0.14149 -0.0301,-0.25424 -0.075,-0.35625 -0.0442,-0.10529 -0.10204,-0.18452 -0.1875,-0.24375 -0.0855,-0.0592 -0.20824,-0.0937 -0.3375,-0.0937 z"
						 style="fill:#ededed;fill-opacity:1;stroke:none" />
					<rect
						 y="148.29309"
						 x="450.05951"
						 height="12"
						 width="4.1999998"
						 id="rect2986"
						 style="fill:#ededed;fill-opacity:1;stroke:none" />
					<rect
						 style="fill:#ededed;fill-opacity:1;stroke:none"
						 id="rect3782"
						 width="4.1999998"
						 height="12"
						 x="441.05951"
						 y="148.29309" />
					<rect
						 y="148.29309"
						 x="432.05951"
						 height="12"
						 width="4.1999998"
						 id="rect3788"
						 style="fill:#ededed;fill-opacity:1;stroke:none" />
					<rect
						 style="fill:#ededed;fill-opacity:1;stroke:none"
						 id="rect3794"
						 width="4.1999998"
						 height="12"
						 x="423.05951"
						 y="148.29309" />
					<rect
						 y="148.29309"
						 x="414.05951"
						 height="12"
						 width="4.1999998"
						 id="rect3800"
						 style="fill:#ededed;fill-opacity:1;stroke:none" />
					<rect
						 style="fill:#ededed;fill-opacity:1;stroke:none"
						 id="rect3806"
						 width="4.1999998"
						 height="12"
						 x="405.05951"
						 y="148.29309" />
				</g>
				<rect
					 style="fill:#ededed;fill-opacity:1;fill-rule:evenodd;stroke:#ffffff;stroke-width:1.02135241px;stroke-linecap:butt;stroke-linejoin:miter;stroke-opacity:1"
					 id="rect2990"
					 width="17.826416"
					 height="25.175499"
					 x="395.45297"
					 y="204.10355"
					 ry="4.0196171"
					 transform="matrix(0.96592583,-0.25881905,0.25881905,0.96592583,0,0)" />
				<rect
					 ry="4.0196171"
					 y="-149.82823"
					 x="441.4429"
					 height="25.175499"
					 width="17.826416"
					 id="rect3767"
					 style="fill:#ffffff;fill-opacity:1;fill-rule:evenodd;stroke:#ededed;stroke-width:1.02135241px;stroke-linecap:butt;stroke-linejoin:miter;stroke-opacity:1"
					 transform="matrix(0.8660254,0.5,-0.5,0.8660254,0,0)" />
			</g>
			<text
				 xml:space="preserve"
				 style="font-style:normal;font-variant:normal;font-weight:normal;font-stretch:normal;font-size:6px;line-height:125%;font-family:'Droid Sans';-inkscape-font-specification:'Droid Sans';text-align:center;letter-spacing:0px;word-spacing:0px;writing-mode:lr-tb;text-anchor:middle;display:inline;fill:#000000;fill-opacity:1;stroke:none"
				 x="451.81137"
				 y="169.43553"
				 id="text3815"
				 sodipodi:linespacing="125%"><tspan
					 sodipodi:role="line"
					 id="tspan3817"
					 x="451.81137"
					 y="169.43553">VSRO</tspan></text>
			<path
				 style="display:inline;fill:none;stroke:#000000;stroke-width:0.20000002;stroke-linecap:butt;stroke-linejoin:miter;stroke-miterlimit:4;stroke-dasharray:none;stroke-opacity:1"
				 d="m 398.34326,162.42428 106.56418,0"
				 id="path3819"
				 inkscape:connector-curvature="0" />
		</g>
	</g>
</svg>
